<?xml version="1.0" standalone="no"?>
<!DOCTYPE svg PUBLIC "-//W3C//DTD SVG 20010904//EN"
 "http://www.w3.org/TR/2001/REC-SVG-20010904/DTD/svg10.dtd">
<svg version="1.0" xmlns="http://www.w3.org/2000/svg"
 width="500.000000pt" height="500.000000pt" viewBox="0 0 500.000000 500.000000"
 preserveAspectRatio="xMidYMid meet">
<metadata>
Created by potrace 1.14, written by Peter Selinger 2001-2017
</metadata>
<g transform="translate(0.000000,500.000000) scale(0.100000,-0.100000)"
fill="#000000" stroke="none">
<path d="M1604 3795 c-124 -29 -234 -116 -290 -231 -32 -63 -38 -87 -43 -167
-3 -51 -4 -464 -1 -918 l5 -825 38 -77 c69 -139 179 -223 322 -244 33 -5 443
-8 910 -7 788 0 854 2 910 19 84 25 138 59 188 118 57 68 83 112 107 181 18
54 19 89 16 929 -1 479 -5 885 -10 901 -18 72 -70 157 -127 210 -59 55 -85 71
-169 103 -41 15 -122 17 -926 18 -627 1 -894 -2 -930 -10z m374 -599 c16 -8
41 -29 55 -46 15 -17 129 -236 254 -486 l227 -456 26 54 c14 29 28 55 33 56 4
2 7 9 7 16 0 25 389 791 417 822 37 41 58 50 118 53 64 2 105 -23 134 -81 25
-52 26 -69 7 -111 -18 -38 -45 -105 -46 -112 0 -3 -9 -20 -19 -39 -29 -51
-141 -274 -337 -671 -198 -402 -225 -448 -270 -470 -65 -31 -146 -12 -191 45
-7 8 -88 166 -179 350 -92 184 -172 338 -177 341 -5 3 -8 10 -8 15 0 5 -58
128 -130 272 -87 174 -133 278 -136 305 -5 52 20 103 63 132 39 26 113 31 152
11z"/>
</g>
</svg>
